<?xml version="1.0" encoding="UTF-8" standalone="no"?>
<!-- Created with Inkscape (http://www.inkscape.org/) -->

<svg
   width="54.999996mm"
   height="54.999996mm"
   viewBox="0 0 207.874 207.874"
   version="1.1"
   id="svg5"
   xml:space="preserve"
   inkscape:export-filename="home.svg"
   inkscape:export-xdpi="96"
   inkscape:export-ydpi="96"
   xmlns:inkscape="http://www.inkscape.org/namespaces/inkscape"
   xmlns:sodipodi="http://sodipodi.sourceforge.net/DTD/sodipodi-0.dtd"
   xmlns="http://www.w3.org/2000/svg"
   xmlns:svg="http://www.w3.org/2000/svg"><sodipodi:namedview
     id="namedview7"
     pagecolor="#ffffff"
     bordercolor="#000000"
     borderopacity="0.25"
     inkscape:showpageshadow="2"
     inkscape:pageopacity="0.0"
     inkscape:pagecheckerboard="0"
     inkscape:deskcolor="#d1d1d1"
     inkscape:document-units="mm"
     showgrid="false" /><defs
     id="defs2" /><g
     inkscape:label="Layer 1"
     inkscape:groupmode="layer"
     id="layer1"><g
       id="g694"
       transform="matrix(0.37995479,0,0,0.37995479,12.634373,9.3111337)"><g
         id="g640">
	<path
   d="M 393,8.8587384 H 97.6 c -14,0 -25.3,11.2999996 -25.3,25.2999996 V 366.75874 c 0,11.5 5.6,22.2 15,28.8 l 140.8,98.5 c 10.3,7.2 24.1,7.2 34.4,0 l 140.8,-98.5 c 9.4,-6.6 15,-17.3 15,-28.8 V 34.158738 c 0,-14 -11.3,-25.2999996 -25.3,-25.2999996 z m -41.5,189.9000016 -48.1,40.9 15,61.5 c 2.8,11.6 -9.7,20.8 -19.8,14.5 l -53.3,-33.5 -53.4,33.4 c -10.1,6.3 -22.6,-2.9 -19.8,-14.5 l 15,-61.5 -48.1,-40.9 c -9,-7.7 -4.3,-22.6 7.6,-23.4 l 62.7,-4.6 23.7,-58.7 c 4.5,-11 20,-11 24.5,0 l 23.7,58.7 62.7,4.6 c 11.9,0.9 16.7,15.8 7.6,23.5 z"
   id="path638" />
</g><g
         id="g642">
</g><g
         id="g644">
</g><g
         id="g646">
</g><g
         id="g648">
</g><g
         id="g650">
</g><g
         id="g652">
</g><g
         id="g654">
</g><g
         id="g656">
</g><g
         id="g658">
</g><g
         id="g660">
</g><g
         id="g662">
</g><g
         id="g664">
</g><g
         id="g666">
</g><g
         id="g668">
</g><g
         id="g670">
</g></g><path
       style="fill:#ffffff;stroke-width:0.477323"
       d="m 103.69101,198.51215 c -1.11977,-0.20678 -2.30114,-0.52995 -2.62527,-0.71815 -0.32413,-0.18819 -13.292409,-9.22781 -28.818407,-20.08803 -29.407376,-20.57006 -29.949642,-21.0092 -31.178632,-25.2491 -0.392753,-1.35497 -0.501229,-19.8079 -0.398606,-67.807187 l 0.140992,-65.945615 1.459636,-1.834202 c 0.8028,-1.008811 2.405579,-2.317492 3.561729,-2.908178 l 2.102093,-1.073976 h 57.480195 c 44.00367,0 57.93813,0.137202 59.4334,0.585196 2.60921,0.781737 5.2375,3.48319 5.96447,6.130496 0.44611,1.624523 0.54908,17.21908 0.44415,67.269319 l -0.13659,65.154547 -1.26813,2.38661 c -0.69747,1.31264 -1.87884,2.95038 -2.62527,3.63944 -1.72039,1.58814 -54.80007,38.70158 -56.72658,39.66335 -1.93416,0.9656 -4.35593,1.24852 -6.80918,0.79548 z m -9.266121,-74.47181 c 5.166034,-3.21216 9.860601,-6.13746 10.432381,-6.50066 0.96692,-0.6142 1.76499,-0.20374 11.41752,5.87216 11.25162,7.08247 12.68438,7.64485 15.29772,6.00461 2.97834,-1.86932 2.96124,-2.86374 -0.28005,-16.28886 -1.59096,-6.58963 -2.89267,-12.16082 -2.89267,-12.38042 0,-0.2196 3.92002,-3.73252 8.71114,-7.806502 4.79113,-4.073977 9.20754,-7.939169 9.81424,-8.589311 1.23482,-1.323229 1.53229,-4.267766 0.60601,-5.998538 -1.22843,-2.295349 -2.321,-2.547108 -15.21242,-3.505357 -6.74966,-0.501714 -12.41148,-1.06211 -12.58181,-1.245321 -0.17034,-0.183215 -2.29104,-5.273403 -4.71267,-11.311535 -5.00266,-12.473718 -5.77335,-13.603695 -9.27822,-13.603695 -3.40615,0 -3.97579,0.850307 -9.113478,13.603695 -2.538216,6.300659 -4.644869,11.491147 -4.681451,11.534412 -0.03661,0.04329 -5.682043,0.506773 -12.54546,1.030005 -6.863417,0.523236 -12.929158,1.192289 -13.479425,1.486783 -1.900787,1.01727 -2.852282,3.940924 -2.143351,6.585864 0.215384,0.803568 12.646208,11.916265 19.09635,17.071426 0.467665,0.373774 -0.01798,2.962524 -2.238614,11.933064 -1.559713,6.30066 -2.836111,12.23226 -2.83644,13.18133 -6.68e-4,1.88186 1.385281,4.04129 3.048594,4.75001 2.098389,0.89411 4.261578,-0.034 13.572104,-5.82316 z"
       id="path779" /></g></svg>
