<?xml version="1.0" encoding="UTF-8" standalone="no"?>
<!-- Created with Inkscape (http://www.inkscape.org/) -->

<svg
   width="54.999996mm"
   height="54.999996mm"
   viewBox="0 0 207.874 207.874"
   version="1.1"
   id="svg5"
   xml:space="preserve"
   inkscape:export-filename="home.svg"
   inkscape:export-xdpi="96"
   inkscape:export-ydpi="96"
   xmlns:inkscape="http://www.inkscape.org/namespaces/inkscape"
   xmlns:sodipodi="http://sodipodi.sourceforge.net/DTD/sodipodi-0.dtd"
   xmlns="http://www.w3.org/2000/svg"
   xmlns:svg="http://www.w3.org/2000/svg"><sodipodi:namedview
     id="namedview7"
     pagecolor="#ffffff"
     bordercolor="#000000"
     borderopacity="0.25"
     inkscape:showpageshadow="2"
     inkscape:pageopacity="0.0"
     inkscape:pagecheckerboard="0"
     inkscape:deskcolor="#d1d1d1"
     inkscape:document-units="mm"
     showgrid="false" /><defs
     id="defs2" /><g
     inkscape:label="Layer 1"
     inkscape:groupmode="layer"
     id="layer1"><path
       d="m 150.41896,64.658369 a 61.101667,61.101667 0 0 0 -120.614696,13.656224 60.45246,60.45246 0 0 0 6.873945,28.038027 41.931019,41.931019 0 0 0 19.85804,78.88989 H 136.73219 A 61.101667,61.101667 0 0 0 150.41896,64.658369 Z"
       id="path602"
       style="stroke-width:7.63769" /><path
       style="fill:#ffffff;stroke-width:0.477323"
       d="m 51.776159,184.70387 c -18.11006,-2.36827 -32.4444,-15.53981 -36.079745,-33.15297 -3.647061,-17.66991 4.442165,-34.98943 21.001627,-44.96573 0.100573,-0.0606 -0.576774,-1.88944 -1.505215,-4.06411 C 24.534035,77.555232 31.256726,49.104575 51.852429,32.017059 70.693361,16.385412 95.495213,13.284501 117.202,23.846569 c 15.31,7.449518 26.04704,19.698237 31.45126,35.8793 l 1.65368,4.951351 4.44008,1.468793 c 15.62933,5.17024 28.28681,15.877393 35.59991,30.114501 4.74473,9.237016 6.78428,17.607516 6.78428,27.843376 0,20.83175 -10.04854,39.39641 -27.56751,50.9309 -8.52765,5.61461 -17.37127,8.65623 -28.13648,9.67708 -6.03953,0.57272 -85.264374,0.56565 -89.651061,-0.008 z"
       id="path610" /></g></svg>
