<?xml version="1.0" encoding="UTF-8" standalone="no"?>
<!-- Created with Inkscape (http://www.inkscape.org/) -->

<svg
   width="54.999996mm"
   height="54.999996mm"
   viewBox="0 0 207.874 207.874"
   version="1.1"
   id="svg5"
   xml:space="preserve"
   inkscape:export-filename="home.svg"
   inkscape:export-xdpi="96"
   inkscape:export-ydpi="96"
   xmlns:inkscape="http://www.inkscape.org/namespaces/inkscape"
   xmlns:sodipodi="http://sodipodi.sourceforge.net/DTD/sodipodi-0.dtd"
   xmlns="http://www.w3.org/2000/svg"
   xmlns:svg="http://www.w3.org/2000/svg"><sodipodi:namedview
     id="namedview7"
     pagecolor="#ffffff"
     bordercolor="#000000"
     borderopacity="0.25"
     inkscape:showpageshadow="2"
     inkscape:pageopacity="0.0"
     inkscape:pagecheckerboard="0"
     inkscape:deskcolor="#d1d1d1"
     inkscape:document-units="mm"
     showgrid="false" /><defs
     id="defs2" /><g
     inkscape:label="Layer 1"
     inkscape:groupmode="layer"
     id="layer1"><g
       id="g310"
       transform="matrix(0.35025069,0,0,0.35025069,14.914866,11.444317)">
	<path
   d="m 256,319.841 c -35.346,0 -64,28.654 -64,64 v 128 h 128 v -128 c 0,-35.346 -28.654,-64 -64,-64 z"
   id="path302" />
	<g
   id="g308">
		<path
   d="m 362.667,383.841 v 128 H 448 c 35.346,0 64,-28.654 64,-64 V 253.26 c 0.005,-11.083 -4.302,-21.733 -12.011,-29.696 L 318.699,27.574 c -31.988,-34.61 -85.976,-36.735 -120.586,-4.747 -1.644,1.52 -3.228,3.103 -4.747,4.747 L 12.395,223.5 C 4.453,231.496 -0.003,242.31 0,253.58 v 194.261 c 0,35.346 28.654,64 64,64 h 85.333 v -128 c 0.399,-58.172 47.366,-105.676 104.073,-107.044 58.604,-1.414 108.814,46.899 109.261,107.044 z"
   id="path304" />
		<path
   d="m 256,319.841 c -35.346,0 -64,28.654 -64,64 v 128 h 128 v -128 c 0,-35.346 -28.654,-64 -64,-64 z"
   id="path306" />
	</g>
</g><path
       style="fill:#ffffff;stroke-width:0.477323"
       d="m 82.680075,165.24736 0.135405,-25.20439 1.781075,-3.6029 c 8.882084,-17.9674 33.998255,-16.53487 41.063515,2.3421 0.99281,2.65259 1.03273,3.55888 1.1985,27.20678 l 0.17147,24.46279 H 104.78736 82.544669 Z"
       id="path322" /><path
       style="fill:#ffffff;stroke-width:0.477323"
       d="m 32.199493,189.78593 c -5.453507,-1.3249 -10.354846,-4.90404 -13.613156,-9.94084 -3.45558,-5.34175 -3.378204,-4.23072 -3.217153,-46.19475 l 0.143802,-37.469825 1.198486,-2.260758 c 1.182362,-2.230343 63.28895,-69.989766 68.599504,-74.843312 2.895296,-2.646138 8.064041,-5.347914 12.282461,-6.420219 3.600893,-0.915333 10.112153,-0.917784 13.982433,-0.0053 3.77988,0.891205 8.71521,3.405199 11.88788,6.055528 2.95616,2.46947 66.18411,70.791717 68.06354,73.547443 0.72281,1.059833 1.53328,2.740548 1.80104,3.734917 0.31704,1.177402 0.44135,15.102376 0.35642,39.926786 l -0.13041,38.11885 -1.77802,3.59713 c -3.02878,6.12759 -8.22289,10.44351 -14.51985,12.06493 -2.38996,0.6154 -5.89646,0.75519 -18.94344,0.75519 h -16.0106 l -0.17695,-25.41743 c -0.17223,-24.73935 -0.20566,-25.51244 -1.25307,-28.9789 -5.0626,-16.7548 -19.42378,-27.70317 -36.33875,-27.70317 -10.470458,0 -19.98137,4.05836 -26.991425,11.5174 -4.500227,4.78845 -7.058147,9.27375 -9.136376,16.02055 l -1.294962,4.20401 -0.176533,25.17877 -0.176533,25.17877 -16.075969,-0.0406 C 39.75692,190.3835 33.834839,190.1832 32.199493,189.78591 Z"
       id="path324" /></g></svg>
