<?xml version="1.0" encoding="UTF-8" standalone="no"?>
<!-- Created with Inkscape (http://www.inkscape.org/) -->

<svg
   width="54.999996mm"
   height="54.999996mm"
   viewBox="0 0 207.874 207.874"
   version="1.1"
   id="svg5"
   xml:space="preserve"
   inkscape:export-filename="home.svg"
   inkscape:export-xdpi="96"
   inkscape:export-ydpi="96"
   xmlns:inkscape="http://www.inkscape.org/namespaces/inkscape"
   xmlns:sodipodi="http://sodipodi.sourceforge.net/DTD/sodipodi-0.dtd"
   xmlns="http://www.w3.org/2000/svg"
   xmlns:svg="http://www.w3.org/2000/svg"><sodipodi:namedview
     id="namedview7"
     pagecolor="#ffffff"
     bordercolor="#000000"
     borderopacity="0.25"
     inkscape:showpageshadow="2"
     inkscape:pageopacity="0.0"
     inkscape:pagecheckerboard="0"
     inkscape:deskcolor="#d1d1d1"
     inkscape:document-units="mm"
     showgrid="false" /><defs
     id="defs2" /><g
     inkscape:label="Layer 1"
     inkscape:groupmode="layer"
     id="layer1"><path
       d="m 182.43506,81.828326 a 11.185254,11.185254 0 0 0 0,-22.370503 h -27.05339 l 4.57103,-31.974915 a 11.185674,11.185674 0 1 0 -22.1468,-3.161706 l -5.01845,35.136621 H 88.270133 l 4.571042,-31.974915 a 11.185674,11.185674 0 1 0 -22.1468,-3.161706 l -5.018451,35.136621 h -32.37759 a 11.185254,11.185254 0 0 0 0,22.370503 H 62.476941 L 56.086434,126.56934 H 25.841506 a 11.18526,11.18526 0 0 0 0,22.37052 h 27.053396 l -4.571038,31.97491 a 11.185674,11.185674 0 0 0 22.1468,3.1617 l 5.018452,-35.13661 h 44.517314 l -4.57104,31.97491 a 11.185675,11.185675 0 0 0 22.1468,3.1617 l 5.01845,-35.13661 h 32.37758 a 11.18526,11.18526 0 0 0 0,-22.37052 h -29.1786 l 6.39051,-44.741014 z m -59.2371,44.741014 H 78.6881 l 6.390502,-44.741014 h 44.509868 z"
       id="path487"
       style="stroke-width:7.45682" /><path
       style="fill:#ffffff;stroke-width:0.477323"
       d="m 54.349958,191.9823 c -1.975073,-1.02853 -2.915112,-1.924 -4.111749,-3.91679 -2.067783,-3.44355 -2.038473,-4.56906 0.596654,-22.91187 1.181373,-8.22341 2.147952,-15.22505 2.147952,-15.55922 0,-0.47544 -3.191984,-0.64036 -14.677672,-0.75833 -16.036702,-0.16471 -16.831285,-0.29113 -19.852605,-3.15867 -4.661573,-4.42431 -4.537715,-12.05002 0.261446,-16.09661 3.057001,-2.57762 3.342929,-2.61298 21.127126,-2.61298 9.06563,0 16.482963,-0.0668 16.482963,-0.14848 0,-0.0816 1.396169,-9.89542 3.102597,-21.80837 1.706429,-11.912943 3.102598,-22.038289 3.102598,-22.500762 0,-0.783506 -1.098924,-0.850613 -16.10964,-0.983786 -15.437131,-0.136953 -16.189344,-0.185817 -18.01893,-1.170442 -2.453257,-1.32027 -3.760382,-2.744276 -4.971779,-5.416333 -1.300219,-2.867984 -1.25249,-5.877542 0.140044,-8.830469 1.341182,-2.844037 2.660993,-4.140385 5.547719,-5.449102 2.033575,-0.921935 3.067304,-0.974346 19.412972,-0.984271 l 17.265021,-0.01048 0.263091,-1.312638 c 0.144705,-0.72195 1.357949,-9.029148 2.696109,-18.460439 1.670262,-11.771959 2.708276,-17.682773 3.311039,-18.854245 3.156487,-6.13464 10.941734,-7.871143 16.450615,-3.669317 2.164844,1.651208 4.089247,5.614268 4.069744,8.381119 -0.0084,1.19546 -1.04484,9.315503 -2.303139,18.044541 l -2.287822,15.870979 h 22.501198 22.50119 l 2.66385,-18.543399 c 1.61442,-11.238216 2.96574,-19.127197 3.43017,-20.025307 2.04717,-3.95878 7.27073,-6.797183 11.16463,-6.066683 4.33277,0.812832 8.20472,4.333406 9.16407,8.332433 0.47746,1.990248 0.26995,4.217194 -1.65286,17.738173 -1.20937,8.504202 -2.31916,16.148996 -2.4662,16.988432 l -0.26734,1.526246 15.20342,0.144383 c 14.50692,0.137769 15.29088,0.191456 17.1127,1.171907 8.51432,4.582153 7.57121,16.754478 -1.55033,20.009637 -1.35607,0.483933 -5.68265,0.644204 -17.81857,0.66007 l -16.02764,0.02095 -3.00396,21.121523 c -1.65217,11.61684 -3.11334,21.81961 -3.24705,22.67283 l -0.24309,1.5513 h 15.99826 15.99826 l 2.49473,1.31263 c 9.25844,4.87146 7.07983,18.19074 -3.29734,20.15872 -1.41443,0.26825 -9.68602,0.48549 -18.4851,0.48549 -8.75884,0 -15.92516,0.17569 -15.92516,0.39043 0,0.21474 -1.15369,8.43865 -2.56376,18.27536 -2.75686,19.23201 -3.11155,20.57012 -6.12645,23.11223 -2.18471,1.84212 -4.2462,2.61298 -6.98781,2.61298 -5.35687,0 -9.80194,-3.74841 -10.80865,-9.11465 -0.2566,-1.36783 3.15076,-28.0132 4.34383,-33.96841 l 0.26391,-1.31734 -22.57788,0.12403 -22.577886,0.12403 -2.484088,17.42228 c -1.36625,9.58225 -2.727899,18.24111 -3.025886,19.24191 -0.297988,1.0008 -1.334657,2.69903 -2.303707,3.77385 -3.519276,3.90341 -8.407003,4.79558 -13.043815,2.38093 z m 72.079252,-86.37466 c 1.66409,-11.748107 3.13729,-21.950878 3.27376,-22.672829 l 0.24812,-1.312637 H 107.46636 84.981618 l -0.239344,1.073976 c -0.13164,0.590687 -1.535685,10.310169 -3.1201,21.59885 -1.584416,11.28868 -2.98846,21.00816 -3.120101,21.59885 l -0.239344,1.07398 h 22.570431 22.57042 z"
       id="path518" /></g></svg>
