<?xml version="1.0" encoding="UTF-8" standalone="no"?>
<!-- Created with Inkscape (http://www.inkscape.org/) -->

<svg
   width="54.999996mm"
   height="54.999996mm"
   viewBox="0 0 207.874 207.874"
   version="1.1"
   id="svg5"
   xml:space="preserve"
   inkscape:export-filename="home.svg"
   inkscape:export-xdpi="96"
   inkscape:export-ydpi="96"
   xmlns:inkscape="http://www.inkscape.org/namespaces/inkscape"
   xmlns:sodipodi="http://sodipodi.sourceforge.net/DTD/sodipodi-0.dtd"
   xmlns="http://www.w3.org/2000/svg"
   xmlns:svg="http://www.w3.org/2000/svg"><sodipodi:namedview
     id="namedview7"
     pagecolor="#ffffff"
     bordercolor="#000000"
     borderopacity="0.25"
     inkscape:showpageshadow="2"
     inkscape:pageopacity="0.0"
     inkscape:pagecheckerboard="0"
     inkscape:deskcolor="#d1d1d1"
     inkscape:document-units="mm"
     showgrid="false" /><defs
     id="defs2" /><g
     inkscape:label="Layer 1"
     inkscape:groupmode="layer"
     id="layer1"><path
       d="M 181.66412,20.471147 A 29.296213,29.296213 0 0 0 157.42735,14.189176 L 89.79125,26.870948 A 36.822791,36.822791 0 0 0 59.751224,63.060383 v 72.540897 a 29.156286,29.156286 0 0 0 -14.729116,-4.09468 29.458233,29.458233 0 1 0 29.45823,29.45822 V 93.770596 A 14.729117,14.729117 0 0 1 86.499295,79.291869 L 168.85715,63.826301 a 7.3645584,7.3645584 0 0 1 8.72701,7.290912 v 42.419857 a 29.156286,29.156286 0 0 0 -14.72913,-4.12416 29.458233,29.458233 0 1 0 29.45823,29.45824 V 43.131892 A 29.362494,29.362494 0 0 0 181.66412,20.471147 Z"
       id="path365"
       style="stroke-width:7.36453" /><path
       style="fill:#ffffff;stroke-width:0.477323"
       d="m 37.947151,189.26444 c -8.599768,-2.33192 -15.440068,-7.96008 -19.168027,-15.77135 -1.762251,-3.69248 -3.006371,-8.75992 -3.019188,-12.29749 -0.01357,-3.74571 1.37132,-9.40753 3.235004,-13.22558 2.494102,-5.10956 8.072132,-10.69044 13.074189,-13.08086 8.327771,-3.97975 16.988467,-4.08968 25.048464,-0.31796 l 3.025061,1.4156 V 97.186434 c 0,-44.229424 -0.162714,-42.23686 4.155404,-50.886137 3.861989,-7.735638 11.515934,-14.520469 19.851305,-17.597169 1.521218,-0.561503 18.812227,-4.061385 38.424477,-7.777516 39.96927,-7.573386 42.05523,-7.821693 48.54633,-5.778825 9.0464,2.847065 16.16344,9.719963 19.40892,18.743121 l 1.11596,3.102598 0.1275,52.939311 c 0.14142,58.718673 0.29764,55.516773 -3.03283,62.163903 -3.30171,6.58974 -9.84014,12.19773 -16.92756,14.51871 -4.6601,1.52607 -13.06452,1.65131 -17.15962,0.25568 -10.56554,-3.60076 -17.43914,-10.84923 -20.08008,-21.17522 -3.68313,-14.4009 4.8084,-29.61142 19.28455,-34.5436 3.72632,-1.2696 10.29475,-1.68839 14.25648,-0.90897 1.64571,0.32377 4.36764,1.21233 6.04873,1.97457 1.68109,0.76225 3.25151,1.3859 3.48983,1.3859 0.25535,0 0.37526,-9.16409 0.29197,-22.314833 -0.12738,-20.11251 -0.22306,-22.464221 -0.96944,-23.8285 -1.088,-1.988698 -3.32398,-3.539095 -5.51877,-3.826634 -2.48275,-0.325266 -86.000368,15.389856 -88.858853,16.720155 -2.596162,1.208218 -5.337078,3.87543 -6.802182,6.619271 l -1.09378,2.048426 -0.275138,38.185815 c -0.248451,34.48217 -0.35624,38.46037 -1.111355,41.01655 -3.022374,10.2313 -11.301335,18.46249 -21.116571,20.99473 -3.573164,0.92185 -10.93435,0.94595 -14.25078,0.0467 z"
       id="path375" /></g></svg>
