<?xml version="1.0" encoding="UTF-8" standalone="no"?>
<!-- Created with Inkscape (http://www.inkscape.org/) -->

<svg
   width="54.999996mm"
   height="54.999996mm"
   viewBox="0 0 207.874 207.874"
   version="1.1"
   id="svg5"
   xml:space="preserve"
   inkscape:export-filename="settings.svg"
   inkscape:export-xdpi="96"
   inkscape:export-ydpi="96"
   xmlns:inkscape="http://www.inkscape.org/namespaces/inkscape"
   xmlns:sodipodi="http://sodipodi.sourceforge.net/DTD/sodipodi-0.dtd"
   xmlns="http://www.w3.org/2000/svg"
   xmlns:svg="http://www.w3.org/2000/svg"><sodipodi:namedview
     id="namedview7"
     pagecolor="#ffffff"
     bordercolor="#000000"
     borderopacity="0.25"
     inkscape:showpageshadow="2"
     inkscape:pageopacity="0.0"
     inkscape:pagecheckerboard="0"
     inkscape:deskcolor="#d1d1d1"
     inkscape:document-units="mm"
     showgrid="false" /><defs
     id="defs2" /><g
     inkscape:label="Layer 1"
     inkscape:groupmode="layer"
     id="layer1"><g
       inkscape:label="Layer 1"
       id="layer1-7"
       transform="matrix(0.90348951,0,0,0.90348951,11.165339,9.3271754)"><path
         d="m 103.21594,138.62612 a 35.147778,35.147778 0 0 1 -35.147791,-35.14777 35.147778,35.147778 0 0 1 35.147791,-35.147791 35.147778,35.147778 0 0 1 35.14777,35.147791 35.147778,35.147778 0 0 1 -35.14777,35.14777 m 74.6137,-25.40682 c 0.4017,-3.21351 0.70295,-6.42703 0.70295,-9.74095 0,-3.31394 -0.30125,-6.62787 -0.70295,-10.042224 l 21.18909,-16.368834 c 1.90803,-1.506329 2.41014,-4.217732 1.20508,-6.427011 L 180.13935,35.894186 c -1.20506,-2.209288 -3.91646,-3.113088 -6.12576,-2.209288 L 149.00847,43.727116 C 143.7865,39.810653 138.36371,36.396297 132.03711,33.885742 L 128.32149,7.2738541 c -0.4017,-2.4101333 -2.51056,-4.2177337 -5.02111,-4.2177337 h -40.1689 c -2.510548,0 -4.619414,1.8076004 -5.021111,4.2177337 L 74.394747,33.885742 c -6.326598,2.510555 -11.74939,5.924911 -16.971357,9.841374 L 32.418264,33.684898 c -2.209289,-0.9038 -4.920688,0 -6.125756,2.209288 L 6.2080638,70.640281 C 4.902576,72.84956 5.505109,75.560963 7.4131313,77.067292 L 28.60222,93.436126 c -0.401689,3.414354 -0.702955,6.728284 -0.702955,10.042224 0,3.31392 0.301266,6.52744 0.702955,9.74095 L 7.4131313,129.88939 c -1.9080223,1.50633 -2.5105553,4.21773 -1.2050675,6.42702 L 26.292508,171.0625 c 1.205068,2.20928 3.916467,3.01266 6.125756,2.20928 L 57.42339,163.12915 c 5.221967,4.01687 10.644759,7.43123 16.971357,9.94179 l 3.715622,26.6119 c 0.401697,2.41012 2.510563,4.21773 5.021111,4.21773 h 40.1689 c 2.51055,0 4.61941,-1.80761 5.02111,-4.21773 l 3.71562,-26.6119 c 6.3266,-2.61098 11.74939,-5.92492 16.97136,-9.94179 l 25.00512,10.14263 c 2.2093,0.80338 4.9207,0 6.12576,-2.20928 l 20.08446,-34.74609 c 1.20506,-2.20929 0.70295,-4.92069 -1.20508,-6.42702 z"
         id="path2115"
         style="stroke-width:10.0422" /><path
         style="fill:#ffffff;stroke-width:0.353553"
         d="m 80.71777,202.9552 c -2.091562,-1.2753 -2.191013,-1.65389 -4.206204,-16.01208 -1.044054,-7.43885 -1.901322,-13.64845 -1.905041,-13.7991 -0.0037,-0.15065 -0.444282,-0.43894 -0.979032,-0.64063 -3.38457,-1.27657 -10.982719,-5.74691 -15.793081,-9.29178 -0.263429,-0.19413 -5.092947,1.59154 -13.148014,4.86136 -13.461915,5.46463 -14.547582,5.76034 -16.578904,4.51561 -0.803396,-0.4923 -3.575613,-5.00032 -11.429455,-18.58595 -5.702837,-9.86481 -10.5363194,-18.41658 -10.7410722,-19.00394 -0.4854859,-1.39266 0.097841,-3.39594 1.3274194,-4.55866 0.5017745,-0.47449 5.4762948,-4.45326 11.0544898,-8.84171 l 10.142172,-7.97899 -0.03507,-1.9205 c -0.01929,-1.05628 -0.09553,-3.98879 -0.169419,-6.5167 -0.07389,-2.5279 -0.0098,-6.26673 0.142329,-8.308501 L 28.675563,93.161318 17.716345,84.72127 C 6.0927141,75.769539 5.3770505,75.046756 5.7657079,72.651739 5.9932748,71.249412 26.149681,36.285551 27.536697,34.887182 c 2.044908,-2.061648 2.470337,-1.965195 16.817018,3.812751 7.103676,2.860915 13.036485,5.148172 13.18402,5.082789 0.147534,-0.06538 2.256982,-1.449537 4.687662,-3.0759 2.430679,-1.626363 6.19201,-3.816299 8.358514,-4.866527 3.632001,-1.760636 3.954757,-1.998683 4.139958,-3.053386 0.110475,-0.629134 0.938214,-6.553248 1.839422,-13.164696 1.814231,-13.309601 2.18555,-14.6442809 4.39492,-15.7973138 1.15054,-0.6004471 2.617055,-0.6429187 22.199559,-0.6429187 20.30404,0 21.01172,0.022489 22.36048,0.7105756 0.77665,0.3962164 1.65189,1.2115186 1.97839,1.8429044 0.37213,0.7196102 1.27693,6.0878215 2.48239,14.7281475 1.04326,7.4777 1.93651,13.621991 1.985,13.653979 0.0485,0.03199 1,0.420386 2.11446,0.863105 2.67257,1.061672 7.43292,3.798801 11.55912,6.646327 l 3.33238,2.299695 13.042,-5.213102 c 14.47708,-5.786721 14.89779,-5.881882 16.91699,-3.82643 1.21718,1.239045 21.04993,35.506263 21.59729,37.316022 0.35072,1.159612 0.29726,1.503379 -0.4505,2.896899 -0.70011,1.304736 -2.69936,3.006954 -11.43602,9.736949 l -10.58759,8.155798 0.009,10.33728 0.009,10.33728 10.54167,8.30851 c 5.79792,4.56968 10.86312,8.73993 11.25601,9.26724 0.45878,0.61573 0.71434,1.50562 0.71434,2.48733 0,1.35985 -1.16768,3.55242 -10.57713,19.86085 -7.9896,13.84753 -10.83662,18.4931 -11.6378,18.98972 -2.03913,1.26397 -3.12819,0.96856 -16.60532,-4.50422 -7.90434,-3.20978 -12.87164,-5.04965 -13.12473,-4.86136 -3.03661,2.25922 -8.97719,5.92048 -12.34281,7.60704 -2.33345,1.16932 -4.28655,2.1695 -4.34021,2.2226 -0.0537,0.0531 -0.96335,6.25225 -2.02152,13.77589 -1.60235,11.39278 -2.0487,13.85454 -2.67034,14.72754 -1.54318,2.1672 -0.75173,2.09833 -24.096,2.09688 -20.507878,-0.001 -21.362145,-0.0275 -22.448989,-0.69023 z m 25.84061,-64.36707 c 4.68013,-0.4551 8.15914,-1.45169 12.41234,-3.5556 14.9368,-7.38876 22.56416,-24.15102 18.39381,-40.423153 -2.58848,-10.099882 -9.32466,-18.304869 -18.74737,-22.835179 -5.72482,-2.75242 -8.4708,-3.349253 -15.37957,-3.342716 -4.961298,0.0047 -6.283015,0.126749 -8.838835,0.816249 C 88.449491,70.8527 83.304989,73.75694 78.78856,78.060194 65.541883,90.681633 64.251197,111.1328 75.781107,125.714 c 5.544269,7.01151 14.706004,11.98807 23.66557,12.85488 1.598863,0.15469 3.066133,0.29882 3.260583,0.32031 0.19445,0.0215 1.92746,-0.114 3.85112,-0.30106 z"
         id="path2124" /></g></g></svg>
