<?xml version="1.0" encoding="UTF-8" standalone="no"?>
<!-- Created with Inkscape (http://www.inkscape.org/) -->

<svg
   width="54.999996mm"
   height="54.999996mm"
   viewBox="0 0 207.874 207.874"
   version="1.1"
   id="svg5"
   xml:space="preserve"
   inkscape:export-filename="web.svg"
   inkscape:export-xdpi="96"
   inkscape:export-ydpi="96"
   xmlns:inkscape="http://www.inkscape.org/namespaces/inkscape"
   xmlns:sodipodi="http://sodipodi.sourceforge.net/DTD/sodipodi-0.dtd"
   xmlns="http://www.w3.org/2000/svg"
   xmlns:svg="http://www.w3.org/2000/svg"><sodipodi:namedview
     id="namedview7"
     pagecolor="#ffffff"
     bordercolor="#000000"
     borderopacity="0.25"
     inkscape:showpageshadow="2"
     inkscape:pageopacity="0.0"
     inkscape:pagecheckerboard="0"
     inkscape:deskcolor="#d1d1d1"
     inkscape:document-units="mm"
     showgrid="false" /><defs
     id="defs2" /><g
     inkscape:label="Layer 1"
     inkscape:groupmode="layer"
     id="layer1"><path
       d="m 140.3545,120.62347 c 0.6893,-5.68675 1.20628,-11.3735 1.20628,-17.23257 0,-5.859081 -0.51698,-11.545821 -1.20628,-17.232571 h 29.12304 c 1.3786,5.51442 2.24022,11.28733 2.24022,17.232571 0,5.94524 -0.86162,11.71815 -2.24022,17.23257 M 125.10367,168.53 c 5.16977,-9.56407 9.13327,-19.90361 11.89048,-30.67396 h 25.41803 c -8.27163,14.21687 -21.45454,25.24571 -37.30851,30.67396 M 122.9496,120.62347 H 82.625393 c -0.861629,-5.68675 -1.378607,-11.3735 -1.378607,-17.23257 0,-5.859081 0.516978,-11.631991 1.378607,-17.232571 H 122.9496 c 0.77547,5.60058 1.37861,11.37349 1.37861,17.232571 0,5.85907 -0.60314,11.54582 -1.37861,17.23257 m -20.16211,51.35305 C 95.635985,161.63698 89.86307,150.17732 86.330394,137.85604 H 119.2446 c -3.53267,12.32128 -9.30558,23.78094 -16.45711,34.12048 M 68.322361,68.925762 H 43.162814 C 51.348283,54.62273 64.617359,43.593888 80.385159,38.251791 75.215387,47.815866 71.338061,58.155406 68.322361,68.925762 M 43.162814,137.85604 h 25.159547 c 3.0157,10.77035 6.893026,21.10989 12.062798,30.67396 -15.7678,-5.42825 -29.036876,-16.45709 -37.222345,-30.67396 M 36.09746,120.62347 c -1.378605,-5.51442 -2.240234,-11.28733 -2.240234,-17.23257 0,-5.945241 0.861629,-11.718151 2.240234,-17.232571 h 29.123039 c -0.689302,5.68675 -1.20628,11.37349 -1.20628,17.232571 0,5.85907 0.516978,11.54582 1.20628,17.23257 M 102.78749,34.719116 c 7.15153,10.33954 12.92444,21.88536 16.45711,34.206646 H 86.330394 C 89.86307,56.604476 95.635985,45.058656 102.78749,34.719116 m 59.62469,34.206646 h -25.41803 c -2.75721,-10.770356 -6.72071,-21.109896 -11.89048,-30.673971 15.85397,5.42826 29.03688,16.370939 37.30851,30.673971 M 102.78749,17.228059 c -47.648043,0 -86.162831,38.773276 -86.162831,86.162841 a 86.162832,86.162832 0 0 0 86.162831,86.16284 86.162832,86.162832 0 0 0 86.16284,-86.16284 86.162832,86.162832 0 0 0 -86.16284,-86.162841 z"
       id="path2172"
       style="fill:#ffffff;stroke-width:8.61627" /></g></svg>
