<?xml version="1.0" encoding="UTF-8" standalone="no"?>
<!-- Created with Inkscape (http://www.inkscape.org/) -->

<svg
   width="54.999996mm"
   height="54.999996mm"
   viewBox="0 0 207.874 207.874"
   version="1.1"
   id="svg5"
   xml:space="preserve"
   inkscape:export-filename="home.svg"
   inkscape:export-xdpi="96"
   inkscape:export-ydpi="96"
   xmlns:inkscape="http://www.inkscape.org/namespaces/inkscape"
   xmlns:sodipodi="http://sodipodi.sourceforge.net/DTD/sodipodi-0.dtd"
   xmlns="http://www.w3.org/2000/svg"
   xmlns:svg="http://www.w3.org/2000/svg"><sodipodi:namedview
     id="namedview7"
     pagecolor="#ffffff"
     bordercolor="#000000"
     borderopacity="0.25"
     inkscape:showpageshadow="2"
     inkscape:pageopacity="0.0"
     inkscape:pagecheckerboard="0"
     inkscape:deskcolor="#d1d1d1"
     inkscape:document-units="mm"
     showgrid="false" /><defs
     id="defs2" /><g
     inkscape:label="Layer 1"
     inkscape:groupmode="layer"
     id="layer1"><g
       inkscape:label="Layer 1"
       id="layer1-6"
       transform="matrix(0.92654544,0,0,0.92654544,8.1846266,6.0608659)"><g
         id="g74"
         transform="matrix(0.41263223,0,0,0.41263223,1.9306144,-1.7536949)"><g
           id="g17">
	<g
   id="g15">
		<g
   id="g13">
			<path
   d="m 487.083,225.514 -75.08,-75.08 v -86.73 c 0,-15.682 -12.708,-28.391 -28.413,-28.391 -15.669,0 -28.377,12.709 -28.377,28.391 V 93.645 L 299.31,37.74 C 271.671,10.116 223.616,10.165 196.04,37.79 L 8.312,225.514 c -11.082,11.104 -11.082,29.071 0,40.158 11.087,11.101 29.089,11.101 40.172,0 L 236.194,77.943 c 6.115,-6.083 16.893,-6.083 22.976,-0.018 l 187.742,187.747 c 5.567,5.551 12.825,8.312 20.081,8.312 7.271,0 14.541,-2.764 20.091,-8.312 11.086,-11.086 11.086,-29.053 -10e-4,-40.158 z"
   id="path9" />
			<path
   d="m 257.561,131.836 c -5.454,-5.451 -14.285,-5.451 -19.723,0 L 72.712,296.913 c -2.607,2.606 -4.085,6.164 -4.085,9.877 v 120.401 c 0,28.253 22.908,51.16 51.16,51.16 h 81.754 v -126.61 h 92.299 v 126.61 h 81.755 c 28.251,0 51.159,-22.907 51.159,-51.159 V 306.79 c 0,-3.713 -1.465,-7.271 -4.085,-9.877 z"
   id="path11" />
		</g>
	</g>
</g><g
           id="g19">
</g><g
           id="g21">
</g><g
           id="g23">
</g><g
           id="g25">
</g><g
           id="g27">
</g><g
           id="g29">
</g><g
           id="g31">
</g><g
           id="g33">
</g><g
           id="g35">
</g><g
           id="g37">
</g><g
           id="g39">
</g><g
           id="g41">
</g><g
           id="g43">
</g><g
           id="g45">
</g><g
           id="g47">
</g></g><path
         style="fill:#ffffff;stroke-width:0.477323"
         d="m 45.106991,194.33004 c -7.432484,-2.38831 -13.086757,-9.01631 -14.302906,-16.76601 -0.284813,-1.81493 -0.488381,-13.45986 -0.490491,-28.05804 -0.0029,-20.33423 0.120017,-25.23987 0.663983,-26.49141 C 31.364705,122.12389 46.35415,106.80874 66.657445,86.559427 93.694437,59.594323 102.0042,51.571204 103.1381,51.337168 c 0.80761,-0.166688 2.09638,-0.06748 2.86394,0.220456 1.76363,0.661605 70.09188,68.850906 71.08202,70.937486 0.61266,1.29109 0.71863,5.35374 0.71863,27.55218 0,17.31195 -0.17829,26.88545 -0.53202,28.56722 -1.34247,6.38265 -5.61835,11.79716 -11.63971,14.73923 l -3.34126,1.63256 -19.4509,0.13946 -19.45089,0.13946 V 169.23101 143.1968 H 104.05634 84.724771 v 26.01408 26.01409 l -18.496253,-0.0257 c -16.330415,-0.0227 -18.803662,-0.12444 -21.121527,-0.86925 z"
         id="path372" /><path
         style="fill:#ffffff;stroke-width:0.477323"
         d="M 10.368302,110.51465 C 4.1878213,108.5847 0.85632934,102.09585 2.8571572,95.884942 3.6454231,93.438034 5.6289473,91.372358 44.801314,52.203516 L 85.918078,11.090453 89.97532,9.1298904 c 5.301446,-2.5617933 8.788164,-3.4035864 14.06197,-3.3949632 5.3351,0.00872 9.44886,0.9441711 14.10007,3.206283 3.26917,1.5899578 4.74755,2.8986338 17.03137,15.0762378 l 13.45145,13.335147 0.15224,-7.817207 c 0.13818,-7.094611 0.25727,-8.030529 1.2884,-10.124975 1.43471,-2.914192 4.66713,-5.347514 8.05237,-6.061708 4.91546,-1.037032 10.13832,1.681159 12.34791,6.426361 1.12515,2.416319 1.12708,2.452933 1.13173,21.516015 l 0.005,19.095576 16.03939,15.987641 c 17.18709,17.131639 18.31646,18.543851 18.32052,22.908814 0.003,3.505358 -0.84654,5.627218 -3.24666,8.106538 -3.7159,3.83852 -8.39351,4.64711 -13.21365,2.28415 -1.25031,-0.61294 -15.66678,-14.676315 -41.76984,-40.746824 -31.00164,-30.962974 -40.23094,-39.91945 -41.52707,-40.299508 -0.9167,-0.268764 -2.52581,-0.355752 -3.57592,-0.193306 -1.77123,0.273998 -4.84302,3.222925 -42.481716,40.782582 C 20.71544,108.56116 19.49705,109.72531 16.97765,110.46007 c -3.065188,0.89394 -3.899296,0.90083 -6.609348,0.0546 z"
         id="path374" /><path
         style="fill:#ffffff;stroke-width:0.0596653"
         d="m 30.426609,130.92065 c 0.122842,-5.32322 0.264028,-7.17573 0.599101,-7.8609 0.287103,-0.58708 3.79365,-4.29476 11.366508,-12.01849 C 54.91675,98.267213 82.758467,70.489789 93.36378,60.187403 l 2.011497,-1.954039 h 8.886563 8.88656 l 2.40498,2.341103 c 6.85081,6.668855 17.01234,16.721615 28.60951,28.30328 l 9.08751,9.075365 v 17.311628 17.31163 H 91.819403 30.388401 Z"
         id="path376" /><path
         style="fill:#ffffff;stroke-width:0.0596653"
         d="m 30.426609,130.92065 c 0.122913,-5.32625 0.264059,-7.17694 0.599531,-7.8609 0.221381,-0.45136 2.247055,-2.64376 6.503354,-7.03861 11.159622,-11.52291 43.26697,-43.630415 55.922961,-55.923235 l 1.91963,-1.864541 h 8.890945 8.89094 l 2.46186,2.398922 c 7.45636,7.265732 29.95114,29.561908 35.35238,35.040265 l 2.28219,2.314784 v 17.294515 17.29452 H 91.819403 30.388401 Z"
         id="path378" /><path
         style="fill:#ffffff;stroke-width:0.0596653"
         d="m 12.738548,111.23805 c -0.08204,-0.0118 -0.390808,-0.0504 -0.686151,-0.0857 -3.1797236,-0.37997 -6.2684885,-2.31941 -8.1178593,-5.0972 C 1.6132445,102.5685 1.3292969,98.094391 3.1942496,94.390555 3.5513075,93.68143 4.0247056,92.928489 4.4735401,92.355838 4.9744061,91.716803 29.925015,66.765506 30.063166,66.765506 c 0.07048,0 -2.522,2.653664 -7.010343,7.175795 C 10.410017,86.679282 7.3560333,89.82758 5.0682641,92.481264 3.4658015,94.340031 3.0242857,95.074434 2.6537948,96.49741 1.403,101.30145 3.1713152,106.19664 7.1639554,108.9828 c 0.6157334,0.42967 1.6835667,1.00399 2.3719465,1.27571 0.6860901,0.27083 2.2331861,0.70653 2.8947471,0.81524 0.732528,0.12037 1.896989,0.0798 2.694513,-0.0939 0.805703,-0.17549 2.240918,-0.5894 2.61263,-0.75346 1.022241,-0.45118 2.793784,-1.90175 5.889679,-4.82258 3.726847,-3.5161 8.769866,-8.492021 26.14609,-25.798222 C 60.959594,68.464593 62.694242,66.759685 62.82664,66.776243 62.959735,66.792888 60.308307,69.465092 42.169761,87.594983 28.795739,100.96262 21.178142,108.53455 20.8507,108.78622 c -2.116611,1.62682 -4.718327,2.51251 -7.289402,2.4815 -0.370472,-0.004 -0.74071,-0.0178 -0.82275,-0.0297 z"
         id="path384" /><path
         style="fill:#ffffff;stroke-width:0.0596653"
         d="m 30.306931,130.42842 0.008,-6.53336 0.134872,-0.47732 c 0.176917,-0.62613 0.644932,-1.57325 1.017175,-2.05846 0.163642,-0.2133 12.497294,-12.58594 27.408114,-27.494762 l 27.110583,-27.106941 0.254197,0.01888 0.254198,0.01888 -9.468264,9.39729 C 52.741989,100.29446 32.194329,121.14764 31.045324,122.85685 c -0.45119,0.67117 -0.620849,3.18521 -0.704237,10.4355 -0.03651,3.17444 -0.04112,2.78811 -0.03416,-2.86393 z"
         id="path388" /><path
         style="fill:#ffffff;stroke-width:0.00745817"
         d="m 13.30164,111.29754 c -0.606877,-0.0177 -1.236696,-0.0864 -1.845896,-0.20129 -0.146767,-0.0277 -0.145435,-0.0273 -0.145435,-0.0434 0,-0.0123 0.0079,-0.0117 0.113738,0.008 0.318541,0.0592 1.24989,0.17962 1.503393,0.19444 0.21069,0.0123 1.202179,0.0122 1.39224,-2.2e-4 1.446028,-0.0942 2.757468,-0.41722 4.086127,-1.00643 0.331616,-0.14707 0.78404,-0.3777 1.112215,-0.56699 0.511898,-0.29526 1.190961,-0.7566 1.413322,-0.96019 0.156229,-0.14304 1.046652,-1.01004 1.704188,-1.65935 0.929149,-0.91754 1.812301,-1.79239 3.098079,-3.06896 l 1.442363,-1.43204 0.03435,-0.002 0.03435,-0.002 -2.68494,2.68573 c -1.476717,1.47715 -2.760454,2.7573 -2.852748,2.84476 -1.043329,0.98874 -2.208076,1.75051 -3.523984,2.30477 -1.036125,0.43642 -2.191002,0.73194 -3.307697,0.8464 -0.337177,0.0346 -0.564212,0.0493 -0.921084,0.0599 -0.270852,0.008 -0.359622,0.008 -0.652589,-6.2e-4 z"
         id="path390" /><path
         style="fill:#ffffff;stroke-width:0.0441942"
         d="M 145.8849,90.506374 C 125.82475,70.43361 108.64564,53.603849 106.36598,51.791107 c -0.34834,-0.276998 -0.53297,-0.34791 -1.18447,-0.454921 -0.92471,-0.151886 -1.8749,-0.1226 -2.25985,0.06965 -0.99839,0.498619 -5.094698,4.294979 -12.890405,11.946509 -1.114416,1.093806 -2.363173,2.314125 -2.775016,2.711819 l -0.748805,0.723081 -0.249418,-0.03116 -0.249419,-0.03116 7.178186,-7.17239 c 5.247112,-5.242876 7.279247,-7.245871 7.553837,-7.445531 1.01193,-0.735789 2.15289,-1.106926 3.40295,-1.106926 1.21367,0 2.34983,0.362552 3.31575,1.058065 0.45586,0.32824 43.9869,43.799022 43.85973,43.799022 -0.0563,0 -1.96577,-1.880231 -5.43415,-5.350789 z"
         id="path392" /><path
         style="fill:#ffffff;stroke-width:0.00390625"
         d="m 68.519649,60.864104 c 0.275064,-0.274379 1.373623,-1.369426 2.441241,-2.43344 l 1.941124,-1.93457 h 0.201336 0.201335 l -2.433591,2.433593 -2.433592,2.433594 -0.208985,-1.54e-4 -0.208986,-1.55e-4 z"
         id="path396" /><path
         style="fill:#ffffff;stroke-width:0.0625"
         d="m 62.803016,66.786718 c -0.106996,-0.120091 5.210696,-5.432434 5.407155,-5.401715 0.11058,0.01729 -0.37353,0.52975 -2.599643,2.751878 -2.157744,2.153881 -2.750732,2.713566 -2.807512,2.649837 z"
         id="path398" /><path
         style="fill:#ffffff;stroke-width:0.0625"
         d="m 79.036365,50.452259 c 8.223784,-8.167978 13.485412,-13.354061 13.575774,-13.380858 0.04145,-0.01229 -4.28398,4.340053 -9.612064,9.671875 -7.53799,7.543281 -9.720974,9.694224 -9.838635,9.694224 -0.119049,0 1.130519,-1.273032 5.874925,-5.985241 z"
         id="path404" /><path
         style="fill:#ffffff;stroke-width:0.0625"
         d="m 30.045825,66.759928 c -0.05445,-0.03428 8.348177,-8.462813 26.90625,-26.989192 14.841984,-14.816637 27.105699,-27.045973 27.252702,-27.176303 0.147002,-0.130329 0.27943,-0.224809 0.294284,-0.209955 0.01485,0.01485 -12.213233,12.266624 -27.173527,27.226156 -18.690292,18.68934 -27.225306,27.18355 -27.279709,27.149294 z"
         id="path406" /><path
         style="fill:#ffffff;stroke-width:0.0078125"
         d="m 86.336023,10.865504 c 0.322132,-0.238994 1.077589,-0.742503 1.593664,-1.0621692 1.01454,-0.6284239 2.146938,-1.2346531 3.226563,-1.7273396 2.432419,-1.1100334 4.970095,-1.8868514 7.660156,-2.3448799 1.888294,-0.3215135 3.902024,-0.474667 5.812504,-0.4420661 0.26425,0.00451 0.55605,0.011524 0.64843,0.015589 0.0924,0.00406 0.18116,0.0075 0.19727,0.00763 l 0.0293,2.359e-4 V 5.5361085 5.759713 l -0.12696,-0.00519 c -0.70562,-0.028823 -2.141,-0.027173 -2.95117,0.00339 -4.021702,0.1517279 -7.062892,0.9041486 -11.157623,2.7605081 -0.594151,0.2693602 -0.798768,0.3670604 -3.127532,1.4933329 -1.001172,0.484201 -1.827344,0.882216 -1.835938,0.884478 -0.0086,0.0023 0.0055,-0.01157 0.03134,-0.03073 z"
         id="path418" /><path
         style="fill:#ffffff;stroke-width:0.03125"
         d="M 138.8125,27.603421 C 127.99224,16.87247 125.31632,14.271885 123.09375,12.32718 121.13898,10.616794 120.00189,9.8355819 118.15625,8.9349856 114.04412,6.9284327 110.46246,6.0002309 105.91406,5.7623722 l -0.39844,-0.020836 V 5.5308566 5.3201773 l 0.13282,0.010913 c 0.073,0.006 0.3789,0.026294 0.67968,0.045092 2.92729,0.1829534 6.09514,0.8663126 8.85447,1.9100539 3.7228,1.408185 6.88935,3.3786118 9.72773,6.0532068 0.27276,0.257023 4.77795,4.750638 10.01154,9.985811 l 9.5156,9.518496 -0.17185,-0.0013 -0.17186,-0.0013 -5.28125,-5.237657 z"
         id="path422" /><path
         style="fill:#ffffff;stroke-width:0.03125"
         d="m 148.52438,30.257812 c 0.0117,-7.290769 -0.001,-6.781231 0.19813,-7.882812 0.46541,-2.57324 1.87596,-5.006196 3.90249,-6.731101 0.47047,-0.400449 0.65556,-0.541072 1.125,-0.854744 1.6339,-1.091746 3.50405,-1.741851 5.51446,-1.916953 0.54692,-0.04763 1.88498,-0.02069 2.40741,0.04849 1.27746,0.169142 2.47009,0.523543 3.59375,1.067919 0.64452,0.312244 0.90307,0.459246 1.46108,0.830704 1.68609,1.122407 3.06191,2.693498 3.97577,4.540063 0.60235,1.217109 0.95913,2.408452 1.14644,3.828125 0.0516,0.391178 0.0564,0.90563 0.0651,7.070312 l 0.009,6.648438 h -0.15708 -0.15709 l -7.8e-4,-2.179688 c -4.3e-4,-1.198828 -0.0141,-3.494531 -0.0305,-5.101562 -0.0665,-6.545995 -0.18119,-7.781168 -0.86761,-9.34375 -0.72426,-1.648741 -1.50045,-2.787772 -2.6832,-3.9375 -1.62875,-1.583281 -3.73569,-2.67321 -5.91794,-3.061372 -1.18507,-0.210792 -2.63767,-0.21004 -3.74571,0.0019 -2.4045,0.460006 -4.68051,1.704809 -6.45786,3.531963 -0.74275,0.76356 -1.35758,1.610154 -1.80152,2.480595 -0.6555,1.285264 -0.90475,2.122003 -1.07053,3.59375 -0.15683,1.392346 -0.21417,3.095175 -0.3457,10.265625 -0.0629,3.429262 -0.074,3.75 -0.12993,3.75 -0.0383,0 -0.0429,-0.917599 -0.0337,-6.648438 z"
         id="path424" /><path
         style="fill:#ffffff;stroke-width:0.0441942"
         d="m 146.3711,35.078247 c -2.12857,-2.118776 -2.20364,-2.1991 -2.04453,-2.187611 0.15394,0.01111 0.30515,0.151719 2.22274,2.066894 1.88736,1.884978 2.05648,2.06594 2.04453,2.187611 -0.0122,0.124759 -0.1444,0.0019 -2.22274,-2.066894 z"
         id="path426" /><path
         style="fill:#ffffff;stroke-width:0.0441942"
         d="m 177.31807,66.049982 -5.69,-5.673089 V 48.661611 36.946329 h 0.13259 0.13258 v 11.678247 11.678247 l 5.71203,5.71216 c 5.44035,5.440471 5.70468,5.712064 5.55742,5.710125 -0.14553,-0.0019 -0.48911,-0.33554 -5.84462,-5.675126 z"
         id="path428" /><path
         style="fill:#ffffff;stroke-width:0.0441942"
         d="m 144.26622,65.74893 c -12.6305,-12.645087 -22.95746,-22.998917 -22.9488,-23.008511 0.0326,-0.03609 10.81517,10.673169 31.03185,30.820783 5.26826,5.250268 10.85662,10.813762 12.41857,12.36332 l 2.83991,2.817379 -0.1885,-9.72e-4 -0.1885,-9.73e-4 -22.96453,-22.991065 z"
         id="path430" /><path
         style="fill:#ffffff;stroke-width:0.0441942"
         d="m 199.38522,88.241667 c -1.44908,-1.5538 -5.10293,-5.261279 -10.38469,-10.537092 -4.15711,-4.152429 -5.9562,-5.977431 -5.89256,-5.977431 0.0504,0 0.0983,-0.0199 0.10635,-0.04423 0.008,-0.02433 3.86293,3.803996 8.56626,8.507378 l 8.55152,8.551605 -0.24302,-0.0031 -0.24303,-0.003 -0.46083,-0.494135 z"
         id="path432" /><path
         style="fill:#ffffff;stroke-width:0.0883883"
         d="m 193.40332,111.19312 c -1.34858,-0.16999 -2.89183,-0.62263 -3.98709,-1.16942 -1.59229,-0.79493 -1.46452,-0.67569 -12.04388,-11.240128 -5.50602,-5.498258 -9.96949,-10.010652 -9.91882,-10.027542 0.0507,-0.01689 1.89069,1.737666 4.08893,3.899014 9.61959,9.458146 15.3783,14.984596 17.17974,16.486816 0.70887,0.59114 1.26204,0.87281 2.55018,1.29855 1.36849,0.45229 2.48753,0.60778 3.96747,0.55128 1.63372,-0.0624 2.63916,-0.31725 4.07587,-1.0332 1.32593,-0.66075 2.31352,-1.40086 3.46611,-2.59751 2.46909,-2.5635 3.31516,-4.8342 3.18159,-8.538895 -0.0571,-1.584626 -0.21125,-2.251433 -0.78369,-3.390512 -0.42066,-0.837051 -0.84242,-1.482678 -1.65629,-2.53542 -0.62651,-0.810388 -2.81993,-3.326705 -3.26962,-3.750944 -0.31305,-0.29533 -0.34448,-0.403308 -0.11737,-0.403308 0.21902,0 3.2374,3.066188 3.8828,3.944307 1.01931,1.386858 1.73136,3.0216 2.07265,4.758476 0.21854,1.112222 0.23431,3.016326 0.0342,4.136406 -0.73663,4.12411 -3.68814,7.61807 -7.58927,8.98406 -1.576,0.55184 -3.688,0.81019 -5.13356,0.62797 z"
         id="path434" /><path
         style="fill:#ffffff;stroke-width:0.0883883"
         d="m 177.89845,146.4153 c -0.0131,-0.92366 -0.0608,-5.59719 -0.10595,-10.38563 -0.0451,-4.78844 -0.12372,-9.38243 -0.17462,-10.20886 -0.10372,-1.68409 -0.28909,-2.93063 -0.49504,-3.32889 -0.36454,-0.70493 -6.63642,-7.24731 -15.89397,-16.57942 -2.32876,-2.34753 -4.21611,-4.28622 -4.19411,-4.30822 0.022,-0.022 4.49374,4.42335 9.93721,9.87856 7.37656,7.39246 9.97145,10.04609 10.18868,10.41931 0.16031,0.27542 0.39804,0.79249 0.52828,1.14905 l 0.23681,0.64829 0.024,10.12047 c 0.0132,5.56625 0.0124,11.05517 -0.002,12.19759 l -0.0257,2.07713 -0.0239,-1.67938 z"
         id="path436" /><path
         style="fill:#ffffff;stroke-width:0.015625"
         d="m 50.796875,195.61451 c -2.803577,-0.0811 -5.471719,-0.68419 -8.018571,-1.81257 -0.407775,-0.18067 -1.246181,-0.59927 -1.637679,-0.81767 -2.51112,-1.40082 -4.682952,-3.26075 -6.440471,-5.51552 -0.621103,-0.79683 -1.25754,-1.75394 -1.750717,-2.63281 -0.774869,-1.38087 -1.402904,-2.87059 -1.838979,-4.3621 -0.04786,-0.16371 -0.08702,-0.30565 -0.08702,-0.31543 0,-0.0122 0.05501,-0.0178 0.176734,-0.0178 h 0.176734 l 0.0208,0.082 c 0.0764,0.30126 0.396756,1.2218 0.621264,1.78515 2.295558,5.76021 7.065322,10.31101 12.832592,12.24349 0.681894,0.22849 1.157807,0.35199 1.765625,0.45821 1.325993,0.2317 3.264575,0.35085 6.757813,0.41534 2.476911,0.0457 7.313305,0.0777 11.800781,0.0781 l 2.707031,2e-4 v 0.21094 0.21094 l -8.472656,-0.003 c -4.659961,-0.002 -8.535937,-0.005 -8.613281,-0.007 z"
         id="path438" /><path
         style="fill:#ffffff;stroke-width:0.0220971"
         d="m 31.004518,180.08573 c -0.38415,-1.37428 -0.641143,-2.99671 -0.720164,-4.54647 -0.01357,-0.26618 -0.02205,-3.03049 -0.02218,-7.23127 -2.07e-4,-6.64612 7.33e-4,-6.80038 0.04142,-6.80038 0.04872,0 0.05169,0.11285 0.09108,3.46924 0.07099,6.04799 0.205755,10.69544 0.354345,12.21969 0.05852,0.60032 0.261628,1.62255 0.496748,2.50014 0.05419,0.20228 0.104662,0.38375 0.112155,0.40327 0.01181,0.0308 -0.0099,0.0355 -0.162942,0.0355 -0.164253,0 -0.177532,-0.003 -0.190461,-0.0497 z"
         id="path440" /><path
         style="fill:#ffffff;stroke-width:0.015625"
         d="m 67.882812,195.41376 v -0.21124 l 2.621094,0.008 c 1.441602,0.004 5.231445,0.0118 8.421875,0.0162 l 5.800781,0.008 v -5.555 -5.555 h 0.179688 0.179687 v 5.75 5.75 h -8.601562 -8.601563 z"
         id="path442" /><path
         style="fill:#ffffff;stroke-width:0.0441942"
         d="m 84.742328,166.83301 v -17.27993 h 0.15468 0.154679 v 17.27993 17.27992 h -0.154679 -0.15468 z"
         id="path444" /><path
         style="fill:#ffffff;stroke-width:0.03125"
         d="M 123.20312,159.23437 V 143.375 h -19.0625 -19.062495 v 3.07812 3.07813 H 84.90625 84.734375 v -3.15625 -3.15625 h 19.312495 19.3125 v 15.9375 15.9375 h -0.0781 -0.0781 z"
         id="path446" /><path
         style="fill:#ffffff;stroke-width:0.015625"
         d="m 123.18331,184.04297 c 0.002,-5.35606 0.006,-9.56074 0.008,-9.34375 l 0.004,0.39453 h 0.0854 0.0854 l 0.004,-0.39453 c 0.002,-0.21699 0.006,3.98769 0.008,9.34375 l 0.004,9.73828 h -0.10156 -0.10156 z"
         id="path448" /><path
         style="fill:#ffffff;stroke-width:0.015625"
         d="m 123.17969,194.70312 v -0.92187 h 0.10156 0.10156 v 0.74466 0.74466 l 1.72266,-0.0106 c 0.94746,-0.006 2.62265,-0.0174 3.72265,-0.0257 2.50018,-0.0188 6.75284,-0.0494 15.23438,-0.10942 1.24609,-0.009 3.15156,-0.0229 4.23437,-0.0313 1.08282,-0.008 2.06895,-0.0153 2.19141,-0.0154 l 0.22266,-8e-5 v 0.27344 0.27344 h -13.76563 -13.76562 z"
         id="path450" /></g></g></svg>
